<?xml version="1.0"?>
<svg xmlns="http://www.w3.org/2000/svg" xmlns:xlink="http://www.w3.org/1999/xlink" xmlns:svgjs="http://svgjs.com/svgjs" version="1.1" width="512" height="512" x="0" y="0" viewBox="0 0 64 64" style="enable-background:new 0 0 512 512" xml:space="preserve" class=""><g><g xmlns="http://www.w3.org/2000/svg" fill="#c7e2fc"><path d="m24 30h13.737c-2.421-3.247-5.48-6.046-9.064-8.196l-4.673-2.804z" fill="#ba841b" data-original="#c7e2fc" style="" class=""/><path d="m24 34h16.276c1.018 1.905 1.84 3.915 2.451 6h-18.727z" fill="#ba841b" data-original="#c7e2fc" style="" class=""/><path d="m24 44h19.622c.25 1.599.378 3.227.378 4.874 0 .376-.007.751-.02 1.126h-19.98z" fill="#ba841b" data-original="#c7e2fc" style="" class=""/><path d="m42 62 1.387-6.935c.071-.354.136-.709.194-1.065h-19.581v8" fill="#ba841b" data-original="#c7e2fc" style="" class=""/></g><path xmlns="http://www.w3.org/2000/svg" d="m16 26h4v36h-4z" fill="#c1c8d1" data-original="#c1c8d1" style="" class=""/><path xmlns="http://www.w3.org/2000/svg" d="m20 30h-4c-1.105 0-2 .895-2 2 0 1.105.895 2 2 2h4" fill="#4d5d7a" data-original="#4d5d7a" style="" class=""/><path xmlns="http://www.w3.org/2000/svg" d="m30.095 17.768-10.095-5.768v50h4v-8h19.581c-.059.356-.123.711-.194 1.065l-1.387 6.935h4l1.338-6.688c.44-2.203.662-4.443.662-6.69 0-12.752-6.833-24.527-17.905-30.854zm-6.095 1.232 4.673 2.804c3.583 2.15 6.642 4.949 9.064 8.196h-13.737zm0 15h16.276c1.018 1.905 1.841 3.915 2.451 6h-18.727zm19.98 16h-19.98v-6h19.622c.25 1.599.378 3.227.378 4.874 0 .376-.007.751-.02 1.126z" fill="#8892a0" data-original="#8892a0" style="" class=""/><path xmlns="http://www.w3.org/2000/svg" d="m15 6c-.034 0-.066.009-.1.01-.459-2.287-2.478-4.01-4.9-4.01s-4.441 1.723-4.9 4.01c-.034-.001-.066-.01-.1-.01-1.657 0-3 1.343-3 3s1.343 3 3 3c.841 0 1.598-.348 2.143-.905.811.567 1.793.905 2.857.905s2.046-.338 2.857-.905c.545.557 1.302.905 2.143.905 1.657 0 3-1.343 3-3s-1.343-3-3-3z" fill="#a1cdfb" data-original="#a1cdfb" style="" class=""/><path xmlns="http://www.w3.org/2000/svg" d="m59 16c-.034 0-.066.009-.1.01-.459-2.287-2.478-4.01-4.9-4.01s-4.441 1.723-4.9 4.01c-.034-.001-.066-.01-.1-.01-1.657 0-3 1.343-3 3s1.343 3 3 3c.841 0 1.598-.348 2.143-.905.811.567 1.793.905 2.857.905s2.046-.338 2.857-.905c.545.557 1.302.905 2.143.905 1.657 0 3-1.343 3-3s-1.343-3-3-3z" fill="#a1cdfb" data-original="#a1cdfb" style="" class=""/><path xmlns="http://www.w3.org/2000/svg" d="m19 2h2v60h-2z" fill="#4d5d7a" data-original="#4d5d7a" style="" class=""/><path xmlns="http://www.w3.org/2000/svg" d="m9.793 50.937c.694-1.271 1.805-2.3 3.219-2.866l.357-.143-.74-1.857-.358.143c-1.304.522-2.406 1.349-3.271 2.366v-3.58h-2v3.58c-.865-1.017-1.968-1.844-3.272-2.366l-.358-.143-.74 1.857.356.143c1.415.566 2.526 1.595 3.22 2.866-.928-.59-2.026-.937-3.206-.937h-1v2h1c2.206 0 4 1.794 4 4v5h2v-5c0-2.206 1.794-4 4-4h1v-2h-1c-1.18 0-2.278.347-3.207.937z" fill="#78b75b" data-original="#78b75b" style="" class=""/><path xmlns="http://www.w3.org/2000/svg" d="m61 50c-1.18 0-2.278.347-3.207.937.694-1.271 1.805-2.3 3.219-2.866l.357-.143-.74-1.857-.358.143c-1.304.522-2.406 1.349-3.271 2.366v-3.58h-2v3.58c-.865-1.017-1.968-1.844-3.272-2.366l-.357-.143-.74 1.857.356.143c1.415.566 2.526 1.595 3.22 2.866-.929-.59-2.027-.937-3.207-.937h-1v2h1c2.206 0 4 1.794 4 4v5h2v-5c0-2.206 1.794-4 4-4h1v-2z" fill="#78b75b" data-original="#78b75b" style="" class=""/><path xmlns="http://www.w3.org/2000/svg" d="m29.803 62 11.999-8h-3.605l-12 8z" fill="#ebf7fe" data-original="#ebf7fe" style="" class=""/><path xmlns="http://www.w3.org/2000/svg" d="m27.056 50h3.887l10.001-6h-3.887z" fill="#ebf7fe" data-original="#ebf7fe" style="" class=""/><path xmlns="http://www.w3.org/2000/svg" d="m30.944 40 9.487-5.692c-.053-.102-.1-.207-.154-.308h-3.22l-10 6z" fill="#ebf7fe" data-original="#ebf7fe" style="" class=""/><path xmlns="http://www.w3.org/2000/svg" d="m24.771 30h2.457l4.408-6.171c-.527-.404-1.064-.799-1.62-1.172z" fill="#ebf7fe" data-original="#ebf7fe" style="" class=""/><path xmlns="http://www.w3.org/2000/svg" d="m2 60h60v2h-60z" fill="#976947" data-original="#976947" style="" class=""/></g></svg>
