<svg height="502pt" viewBox="0 -11 502.4 502" width="502pt" xmlns="http://www.w3.org/2000/svg"><path d="m27.199219 48.199219h448v424h-448zm0 0" fill="#df9c71"/><path d="m387.199219 328.199219 8 24v120h32v-120l8-24zm0 0" fill="#aa6f52"/><path d="m67.199219 328.199219 8 24v120h32v-120l8-24zm0 0" fill="#aa6f52"/><path d="m27.199219 248.199219h448v80h-448zm0 0" fill="#c68561"/><path d="m219.199219 200.199219h64v48h-64zm0 0" fill="#c68561"/><path d="m251.199219 280.199219-112 16 8 16v16h208v-16l8-16zm0 0" fill="#aa6f52"/><path d="m227.199219 368.199219h48v104h-48zm0 0" fill="#634235"/><path d="m243.199219.199219h16v32h-16zm0 0" fill="#df9c71"/><path d="m19.199219 80.199219h128v-72h-24l-112 40 8 16zm0 0" fill="#df9c71"/><path d="m99.199219 80.199219 8 24v144h32v-144l8-24zm0 0" fill="#aa6f52"/><path d="m179.199219 32.199219v16l8 8v24h128v-24l8-8v-16zm0 0" fill="#c68561"/><path d="m147.199219 328.199219 8 24v120h32v-120l8-24zm0 0" fill="#aa6f52"/><path d="m147.199219 48.199219h-136l8 16v16h128zm0 0" fill="#c68561"/><path d="m19.199219 80.199219 8 24v144h32v-144l8-24zm0 0" fill="#aa6f52"/><path d="m483.199219 80.199219h-128v-72h24l112 40-8 16zm0 0" fill="#df9c71"/><path d="m403.199219 80.199219-8 24v144h-32v-144l-8-24zm0 0" fill="#aa6f52"/><path d="m355.199219 48.199219h136l-8 16v16h-128zm0 0" fill="#c68561"/><g fill="#aa6f52"><path d="m483.199219 80.199219-8 24v144h-32v-144l-8-24zm0 0"/><path d="m235.199219 80.199219-8 24v144h-32v-144l-8-24zm0 0"/><path d="m315.199219 80.199219-8 24v144h-32v-144l-8-24zm0 0"/></g><path d="m179.199219.199219h16v32h-16zm0 0" fill="#df9c71"/><path d="m307.199219.199219h16v32h-16zm0 0" fill="#df9c71"/><path d="m11.199219 240.199219h480v16h-480zm0 0" fill="#aa6f52"/><path d="m307.199219 328.199219 8 24v120h32v-120l8-24zm0 0" fill="#aa6f52"/><path d="m11.199219 464.199219h480v16h-480zm0 0" fill="#aa6f52"/><path d="m380.800781.199219h-33.601562v88h2.402343l5.597657 17.601562v134.398438h-40v-134.398438l5.601562-17.601562h2.398438v-28.800781l8-8v-27.199219h-8v-24h-16v24h-48v-24h-16v24h-48v-24h-16v24h-8v27.199219l8 8v28.800781h2.402343l5.597657 17.601562v134.398438h-40v-134.398438l5.601562-17.601562h2.398438v-88h-33.597657l-121.601562 43.199219 11.199219 22.402343v22.398438h2.402343l5.597657 17.601562v134.398438h-8v16h8v208h-8v16h480v-16h-8v-208h8v-16h-8v-134.398438l5.601562-17.601562h2.398438v-22.398438l11.199219-22.402343zm94.398438 62.402343v9.597657h-112v-16h115.199219zm-40 43.199219v134.398438h-32v-134.398438l5.601562-17.601562h20.800781zm-57.597657-89.601562 67.199219 24h-81.601562v-24zm-11.203124 72h25.601562l-4.800781 14.402343v137.597657h-16v-137.597657zm-67.199219 14.402343v137.597657h-16v-137.597657l-4.800781-14.402343h25.601562zm-112-57.601562v-4.800781h128v4.800781l-8 8v19.199219h-112v-19.199219zm74.402343 43.199219 5.597657 17.601562v86.398438h-32v-86.398438l5.601562-17.601562zm-26.402343 120h32v32h-32zm-36.800781-120h25.601562l-4.800781 14.402343v137.597657h-16v-137.597657zm-67.199219 14.402343v137.597657h-16v-137.597657l-4.800781-14.402343h25.601562zm-107.199219-46.402343h115.199219v16h-112v-9.597657zm48.800781 32h20.800781l5.597657 17.601562v134.398438h-32v-134.398438zm52-72h14.398438v24h-81.597657zm-94.402343 72h25.601562l-4.800781 14.402343v137.597657h-16v-137.597657zm4.800781 248h26.402343l5.597657 17.601562v110.398438h-32zm116-33.597657 100-14.402343 100 14.402343-4 8v9.597657h-192v-9.597657zm268 161.597657h-16v-113.597657l-4.800781-14.402343h25.601562l-4.800781 14.402343zm-37.597657-128 5.597657 17.601562v110.398438h-32v-110.398438l5.601562-17.601562zm-114.402343 128h-32v-88h32zm-48-104v104h-24v-110.398438l5.601562-17.601562h100.800781l5.597657 17.601562v110.398438h-24v-104zm-40 104h-16v-113.597657l-4.800781-14.402343h25.601562l-4.800781 14.402343zm139.199219-128h25.601562l-4.800781 14.402343v113.597657h-16v-113.597657zm-176.796876 0 5.597657 17.601562v110.398438h-32v-110.398438l5.601562-17.601562zm-42.402343 14.402343v113.597657h-16v-113.597657l-4.800781-14.402343h25.601562zm336 113.597657v-110.398438l5.601562-17.601562h26.398438v128zm32-144h-104v-6.398438l12-24-123.199219-17.601562h-.800781l-124 17.601562 12 24v6.398438h-104v-64h432zm0-217.597657v137.597657h-16v-137.597657l-4.800781-14.402343h25.601562zm0 0"/></svg>