<svg id="Layer_1" enable-background="new 0 0 512 512" height="512" viewBox="0 0 512 512" width="512" xmlns="http://www.w3.org/2000/svg"><g><g><ellipse cx="319.155" cy="215.717" fill="#fee077" rx="110.142" ry="110.142" transform="matrix(.707 -.707 .707 .707 -59.057 288.859)"/></g><g><path d="m319.155 105.576c-5.089 0-10.095.353-15 1.021 53.733 7.318 95.142 53.38 95.142 109.121s-41.409 101.803-95.142 109.121c4.905.668 9.911 1.021 15 1.021 60.83 0 110.142-49.312 110.142-110.142s-49.312-110.142-110.142-110.142z" fill="#f0d370"/></g><g><path d="m372.651 207.178-110.345 164.918h227.177l-116.832-164.918-110.345 164.918h227.177z" fill="#e4b052"/></g><g><path d="m372.651 207.178-14.572 21.778 101.404 143.14h30z" fill="#dd9e32"/></g><g><path d="m372.651 207.178-110.345 164.918h144.984l-34.639-164.918-110.345 164.918z" fill="#eac881"/></g><g><path d="m504.5 406.424h-497v-18.732c0-8.613 6.983-15.596 15.596-15.596h465.808c8.613 0 15.596 6.983 15.596 15.596z" fill="#c48958"/></g><g><path d="m488.904 372.096h-30c8.613 0 15.596 6.983 15.596 15.596v18.732h30v-18.732c0-8.614-6.983-15.596-15.596-15.596z" fill="#b27a49"/></g><g><path d="m197.121 130.715-161.505 241.381h332.506l-171.001-241.381-161.505 241.381h332.506z" fill="#e4b052"/></g><g><path d="m197.121 130.715-14.572 21.778 155.573 219.603h30z" fill="#dd9e32"/></g><g><path d="m197.121 130.715-161.505 241.381h212.204l-50.699-241.381-161.505 241.381z" fill="#eac881"/></g><g><path d="m493.135 364.991c-.228-.777-.578-1.531-1.072-2.228l-67.35-95.07c7.913-16.067 12.083-33.95 12.083-51.975 0-22.567-6.409-44.493-18.535-63.409-11.802-18.41-28.431-33.149-48.091-42.624-3.73-1.798-8.214-.232-10.012 3.5-1.799 3.731-.232 8.214 3.5 10.012 17.157 8.269 31.672 21.135 41.975 37.207 10.574 16.495 16.163 35.622 16.163 55.313 0 12.936-2.465 25.782-7.175 37.73l-35.851-50.606c-2.395-3.379-7.075-4.18-10.456-1.785-.774.548-1.405 1.221-1.901 1.966-.001 0-.007 0-.007 0l-52.726 79.25-83.462-117.812c18.335-31.812 51.977-51.386 88.936-51.386 4.486 0 9 .292 13.416.868 4.104.536 7.871-2.36 8.407-6.467.535-4.107-2.36-7.871-6.468-8.407-5.057-.659-10.223-.994-15.355-.994-40.063 0-76.722 20.069-98.356 53.089l-17.558-24.785c-1.426-2.014-3.726-3.199-6.22-3.164-2.468.033-4.762 1.277-6.134 3.329l-159.276 238.053h-8.515c-12.735 0-23.095 10.36-23.095 23.096v18.732c0 4.142 3.357 7.5 7.5 7.5h67.034c4.143 0 7.5-3.358 7.5-7.5s-3.357-7.5-7.5-7.5h-59.534v-11.232c0-4.464 3.632-8.096 8.096-8.096h12.5c.005 0 .009.001.014.001s.011-.001.016-.001h332.497 39.126c.011 0 .022.001.034.001.009 0 .019-.001.028-.001h81.594c4.464 0 8.096 3.632 8.096 8.096v11.232h-392.467c-4.143 0-7.5 3.358-7.5 7.5s3.357 7.5 7.5 7.5h399.966c4.143 0 7.5-3.358 7.5-7.5v-18.732c0-11.29-8.144-20.707-18.865-22.701zm-79.757-.395-25.96-123.599 87.561 123.599zm-76.942-89.446c.12.006.239.018.36.018h19.379c4.143 0 7.5-3.358 7.5-7.5s-3.357-7.5-7.5-7.5h-9.772l22.584-33.945 14.124 67.247h-12.695c-4.143 0-7.5 3.358-7.5 7.5s3.357 7.5 7.5 7.5h15.846l11.788 56.126h-26.05l-15.144-21.377h9.009c4.143 0 7.5-3.358 7.5-7.5s-3.357-7.5-7.5-7.5h-19.379c-.083 0-.165.01-.247.013l-23.267-32.843zm-131.511-4.063h14.016l13.412 63.856h-11.104c-4.143 0-7.5 3.358-7.5 7.5s3.357 7.5 7.5 7.5h14.255l3.078 14.653h-188.923l46.652-69.725h17.913c4.143 0 7.5-3.358 7.5-7.5s-3.357-7.5-7.5-7.5h-7.877l9.995-14.938 26.967-40.303h19.115c4.143 0 7.5-3.358 7.5-7.5s-3.357-7.5-7.5-7.5h-9.078l40.1-59.932 22.346 106.389h-10.865c-4.143 0-7.5 3.358-7.5 7.5-.002 4.142 3.355 7.5 7.498 7.5zm48.983 93.509-42.02-200.062 141.729 200.062z"/><path d="m172.111 308.658h-19.379c-4.143 0-7.5 3.358-7.5 7.5s3.357 7.5 7.5 7.5h19.379c4.143 0 7.5-3.358 7.5-7.5s-3.357-7.5-7.5-7.5z"/><path d="m104.534 338.61h-19.379c-4.143 0-7.5 3.358-7.5 7.5s3.357 7.5 7.5 7.5h19.379c4.143 0 7.5-3.358 7.5-7.5s-3.357-7.5-7.5-7.5z"/></g></g></svg>